<svg width="40" height="30" viewBox="0 0 40 30" fill="none" xmlns="http://www.w3.org/2000/svg">
<path d="M35.1702 8.36347C35.2302 8.38347 35.2902 8.38347 35.3602 8.38347C35.4902 8.38347 35.6102 8.35347 35.7302 8.28347L37.8302 7.07347C38.1802 6.87347 38.2902 6.42347 38.0902 6.07347C37.9902 5.90347 37.8302 5.78347 37.6402 5.73347C37.4502 5.68347 37.2502 5.71347 37.0902 5.80347L34.9902 7.01347C34.6402 7.21347 34.5202 7.66347 34.7302 8.01347C34.8302 8.18347 34.9902 8.30347 35.1702 8.35347V8.36347Z" fill="url(#paint0_linear_1398_29421)"/>
<path d="M37.8302 17.1835L35.7302 15.9735C35.3802 15.7735 34.9402 15.8935 34.7302 16.2335C34.6302 16.4035 34.6102 16.6035 34.6502 16.7835C34.6902 16.9635 34.8202 17.1335 34.9902 17.2235L37.0902 18.4335C37.2002 18.5035 37.3302 18.5335 37.4602 18.5335C37.5202 18.5335 37.5902 18.5335 37.6502 18.5135C37.8402 18.4635 38.0002 18.3435 38.1002 18.1735C38.3002 17.8235 38.1802 17.3835 37.8402 17.1735L37.8302 17.1835Z" fill="url(#paint1_linear_1398_29421)"/>
<path d="M27.6101 3.91348C28.0101 3.91348 28.3401 3.58348 28.3401 3.18348V0.783477C28.3701 0.383477 28.0701 0.0334767 27.6601 0.00347671C27.2401 -0.0365233 26.9101 0.273477 26.8701 0.683477V3.18348C26.8701 3.58348 27.2001 3.91348 27.6001 3.91348H27.6101Z" fill="url(#paint2_linear_1398_29421)"/>
<path d="M22.5101 4.74345C22.6501 4.97345 22.8901 5.10345 23.1401 5.10345C23.2601 5.10345 23.3901 5.07345 23.5101 5.00345C23.6801 4.90345 23.8001 4.74345 23.8501 4.56345C23.9001 4.37345 23.8701 4.18345 23.7801 4.01345L22.5701 1.91345C22.3701 1.56345 21.9201 1.44345 21.5701 1.65345C21.4001 1.75345 21.2801 1.91345 21.2301 2.09345C21.1801 2.27345 21.2101 2.47345 21.3001 2.64345L22.5101 4.74345Z" fill="url(#paint3_linear_1398_29421)"/>
<path d="M38.9799 11.3935H36.5799C36.3899 11.3835 36.1999 11.4435 36.0499 11.5735C35.8999 11.7035 35.8099 11.8835 35.7999 12.0735C35.7899 12.2635 35.8499 12.4535 35.9699 12.6035C36.0999 12.7535 36.2799 12.8435 36.4699 12.8535C36.4699 12.8535 36.5499 12.8535 36.5599 12.8535H38.9999C39.1999 12.8335 39.3699 12.7535 39.4999 12.6035C39.6299 12.4535 39.6899 12.2635 39.6699 12.0735C39.6399 11.7135 39.3599 11.4235 38.9699 11.4035L38.9799 11.3935Z" fill="url(#paint4_linear_1398_29421)"/>
<path d="M31.7302 5.01348C31.8402 5.08348 31.9702 5.11348 32.1002 5.11348C32.1602 5.11348 32.2202 5.11348 32.2902 5.09348C32.4802 5.04348 32.6402 4.92348 32.7402 4.75348L33.9502 2.65348C34.0502 2.48348 34.0702 2.29348 34.0302 2.10348C33.9802 1.91348 33.8602 1.75348 33.6902 1.65348C33.5202 1.55348 33.3202 1.53348 33.1402 1.58348C32.9502 1.63348 32.7902 1.75348 32.6902 1.92348L31.4802 4.02348C31.3802 4.19348 31.3502 4.38348 31.4002 4.57348C31.4502 4.76348 31.5702 4.92348 31.7402 5.02348L31.7302 5.01348Z" fill="url(#paint5_linear_1398_29421)"/>
<path d="M27.6099 5.49347C26.2199 5.49347 24.9299 5.92347 23.8599 6.66347C27.2899 8.12347 29.7899 11.5335 30.0199 15.5535C30.8899 15.7835 31.6699 16.2035 32.3799 16.7435C33.5799 15.5035 34.2499 13.8735 34.2499 12.1335C34.2499 8.47347 31.2699 5.49347 27.6199 5.49347H27.6099Z" fill="url(#paint6_linear_1398_29421)"/>
<path d="M29.07 16.1935C28.68 11.0535 24.45 7.05347 19.36 7.05347C16.3 7.05347 13.36 8.49347 11.46 10.9235C11.36 10.8735 11.26 10.8335 11.16 10.7935C11.09 10.7635 11.03 10.7435 10.96 10.7235C10.84 10.6835 10.72 10.6435 10.58 10.6035C10.52 10.5835 10.46 10.5735 10.4 10.5535C10.27 10.5235 10.13 10.5035 9.94 10.4735C9.9 10.4735 9.86 10.4635 9.82 10.4535C9.62 10.4335 9.43 10.4135 9.23 10.4135C6.31 10.4135 3.93 12.7935 3.93 15.7135C3.93 15.7335 3.93 15.7635 3.93 15.7835C1.58 17.1335 0 19.8235 0 22.5235C0 26.6335 3.34 29.9735 7.45 29.9735H21.19C21.25 29.9735 21.31 29.9735 21.38 29.9635H21.45C21.51 29.9635 21.58 29.9735 21.64 29.9735H27.14C31 29.9735 34.13 26.8335 34.13 22.9735C34.13 19.8635 32.01 17.0335 29.06 16.1735L29.07 16.1935ZM27.15 28.3635H7.45C4.23 28.3635 1.62 25.7435 1.62 22.5335C1.62 20.2935 3.08 17.9735 5.08 17.0135L5.54 16.7935V16.2835C5.54 16.2335 5.54 16.1735 5.54 16.0835V15.8435C5.54 15.8435 5.54 15.7635 5.54 15.7235C5.54 13.6935 7.19 12.0435 9.22 12.0435C9.38 12.0435 9.54 12.0535 9.7 12.0835L9.82 12.1035C9.96 12.1235 10.1 12.1535 10.29 12.2135C10.44 12.2635 10.58 12.3135 10.73 12.3835L10.84 12.4335C10.97 12.4935 11.09 12.5635 11.21 12.6435C12.26 13.3235 12.89 14.4835 12.89 15.7235C12.89 16.1735 13.25 16.5335 13.7 16.5335C14.15 16.5335 14.51 16.1735 14.51 15.7235C14.51 14.2435 13.89 12.8435 12.81 11.8435C14.39 9.89347 16.88 8.68347 19.36 8.68347C23.43 8.68347 26.91 11.8535 27.41 15.9535C26.84 15.9235 26.1 15.9335 25.36 16.0435C24.92 16.1135 24.61 16.5235 24.68 16.9635C24.74 17.3535 25.08 17.6535 25.48 17.6535C25.52 17.6535 25.56 17.6535 25.6 17.6535C26.82 17.4735 28.1 17.6535 28.14 17.6535C30.64 18.1235 32.52 20.4335 32.52 23.0035C32.52 25.9635 30.11 28.3735 27.15 28.3735V28.3635Z" fill="url(#paint7_linear_1398_29421)"/>
<defs>
<linearGradient id="paint0_linear_1398_29421" x1="41.7579" y1="6.83711" x2="36.6174" y2="3.74091" gradientUnits="userSpaceOnUse">
<stop stop-color="#6703B7"/>
<stop offset="1" stop-color="#AA11AF"/>
</linearGradient>
<linearGradient id="paint1_linear_1398_29421" x1="41.7691" y1="16.9969" x2="36.6439" y2="13.8872" gradientUnits="userSpaceOnUse">
<stop stop-color="#6703B7"/>
<stop offset="1" stop-color="#AA11AF"/>
</linearGradient>
<linearGradient id="paint2_linear_1398_29421" x1="29.8165" y1="1.65041" x2="27.0035" y2="1.17209" gradientUnits="userSpaceOnUse">
<stop stop-color="#6703B7"/>
<stop offset="1" stop-color="#AA11AF"/>
</linearGradient>
<linearGradient id="paint3_linear_1398_29421" x1="26.5465" y1="3.04843" x2="21.8424" y2="1.4518" gradientUnits="userSpaceOnUse">
<stop stop-color="#6703B7"/>
<stop offset="1" stop-color="#AA11AF"/>
</linearGradient>
<linearGradient id="paint4_linear_1398_29421" x1="43.5545" y1="12.0086" x2="40.4287" y2="8.26109" gradientUnits="userSpaceOnUse">
<stop stop-color="#6703B7"/>
<stop offset="1" stop-color="#AA11AF"/>
</linearGradient>
<linearGradient id="paint5_linear_1398_29421" x1="36.7267" y1="3.05693" x2="32.015" y2="1.45599" gradientUnits="userSpaceOnUse">
<stop stop-color="#6703B7"/>
<stop offset="1" stop-color="#AA11AF"/>
</linearGradient>
<linearGradient id="paint6_linear_1398_29421" x1="44.6559" y1="10.2379" x2="27.2597" y2="2.97502" gradientUnits="userSpaceOnUse">
<stop stop-color="#6703B7"/>
<stop offset="1" stop-color="#AA11AF"/>
</linearGradient>
<linearGradient id="paint7_linear_1398_29421" x1="68.3128" y1="16.7194" x2="22.1331" y2="-14.3664" gradientUnits="userSpaceOnUse">
<stop stop-color="#6703B7"/>
<stop offset="1" stop-color="#AA11AF"/>
</linearGradient>
</defs>
</svg>
