<svg width="21" height="21" viewBox="0 0 21 21" fill="none" xmlns="http://www.w3.org/2000/svg">
<path d="M19.1802 5.82816C19.081 5.65768 18.8624 5.59983 18.692 5.69896L16.9482 6.70693C16.7777 6.80605 16.7199 7.02466 16.819 7.19514C16.9181 7.36562 17.1367 7.42346 17.3072 7.32434L19.051 6.31636C19.2214 6.21719 19.2793 5.99864 19.1802 5.82816Z" fill="url(#paint0_linear_2253_591)" stroke="url(#paint1_linear_2253_591)" stroke-width="0.5" stroke-linejoin="round"/>
<path d="M19.051 15.1554L17.3072 14.1474C17.1367 14.0483 16.9181 14.1062 16.819 14.2766C16.7199 14.4471 16.7777 14.6657 16.9482 14.7649L18.692 15.7728C18.8624 15.8719 19.081 15.8141 19.1802 15.6436C19.2793 15.4731 19.2214 15.2545 19.051 15.1554Z" fill="url(#paint2_linear_2253_591)" stroke="url(#paint3_linear_2253_591)" stroke-width="0.5" stroke-linejoin="round"/>
<path d="M10.7088 17.7907C10.511 17.776 10.3389 17.9244 10.3242 18.1222C10.3229 18.1399 10.3229 18.1576 10.3242 18.1753V20.1893C10.3095 20.3871 10.4579 20.5592 10.6556 20.5739C10.8534 20.5886 11.0255 20.4402 11.0402 20.2425C11.0416 20.2248 11.0416 20.207 11.0402 20.1893V18.1753C11.0549 17.9776 10.9065 17.8054 10.7088 17.7907Z" fill="url(#paint4_linear_2253_591)" stroke="url(#paint5_linear_2253_591)" stroke-width="0.5" stroke-linejoin="round"/>
<path d="M4.41686 6.70693L2.67312 5.69896C2.50265 5.59983 2.28404 5.65768 2.18492 5.82816C2.0858 5.99864 2.14364 6.21724 2.31412 6.31636L4.05786 7.32434C4.22834 7.42346 4.44694 7.36562 4.54606 7.19514C4.64519 7.02461 4.58734 6.80605 4.41686 6.70693Z" fill="url(#paint6_linear_2253_591)" stroke="url(#paint7_linear_2253_591)" stroke-width="0.5" stroke-linejoin="round"/>
<path d="M10.7088 0.895749C10.511 0.881053 10.3389 1.02944 10.3242 1.22719C10.3228 1.24489 10.3228 1.26264 10.3242 1.28035V3.29432C10.3253 3.49104 10.4845 3.65027 10.6812 3.65136C10.8795 3.65136 11.0402 3.49064 11.0402 3.29235V1.2804C11.0549 1.08265 10.9065 0.910444 10.7088 0.895749Z" fill="url(#paint8_linear_2253_591)" stroke="url(#paint9_linear_2253_591)" stroke-width="0.5" stroke-linejoin="round"/>
<path d="M7.26975 4.11096L6.26375 2.36722C6.16463 2.19674 5.94602 2.1389 5.77555 2.23802C5.60507 2.33714 5.54722 2.55575 5.64634 2.72622L6.65235 4.46996C6.75147 4.64044 6.97007 4.69829 7.14055 4.59917C7.31103 4.5 7.36887 4.28144 7.26975 4.11096Z" fill="url(#paint10_linear_2253_591)" stroke="url(#paint11_linear_2253_591)" stroke-width="0.5" stroke-linejoin="round"/>
<path d="M20.467 10.707C20.4539 10.5297 20.3129 10.3887 20.1356 10.3755H18.1216C17.9239 10.3608 17.7517 10.5092 17.737 10.707C17.7223 10.9047 17.8707 11.0769 18.0685 11.0916C18.0862 11.0929 18.104 11.0929 18.1217 11.0916H20.1357C20.3334 11.0769 20.4817 10.9047 20.467 10.707Z" fill="url(#paint12_linear_2253_591)" stroke="url(#paint13_linear_2253_591)" stroke-width="0.5" stroke-linejoin="round"/>
<path d="M3.29436 10.3776C3.27665 10.3763 3.2589 10.3763 3.2412 10.3776H1.22722C1.02947 10.3923 0.881084 10.5645 0.895779 10.7622C0.908946 10.9395 1.04989 11.0805 1.22722 11.0936H3.2412C3.43894 11.1083 3.6111 10.9599 3.62579 10.7622C3.64049 10.5644 3.4921 10.3922 3.29436 10.3776Z" fill="url(#paint14_linear_2253_591)" stroke="url(#paint15_linear_2253_591)" stroke-width="0.5" stroke-linejoin="round"/>
<path d="M10.684 5.46597C7.77417 5.46558 5.41499 7.82411 5.41455 10.7339C5.41435 12.1318 5.96973 13.4725 6.95832 14.4608C7.94504 15.45 9.28534 16.0051 10.6825 16.0034C13.5923 16.0037 15.9515 13.6452 15.9519 10.7354C15.9523 7.82559 13.5938 5.46637 10.684 5.46597Z" fill="url(#paint16_linear_2253_591)" stroke="url(#paint17_linear_2253_591)" stroke-width="0.5" stroke-linejoin="round"/>
<path d="M10.2734 7.2914C10.2557 7.29007 10.238 7.29007 10.2203 7.2914C8.46086 7.2914 7.03461 8.71766 7.03461 10.4771C7.03461 10.6754 7.19532 10.8361 7.39361 10.8361C7.59111 10.835 7.75064 10.6746 7.75064 10.4771C7.74956 9.11424 8.8535 8.00853 10.2163 8.00744C10.2177 8.00744 10.2189 8.00744 10.2203 8.00744C10.418 8.02214 10.5902 7.87375 10.6049 7.676C10.6196 7.47825 10.4712 7.30605 10.2734 7.2914Z" fill="white" stroke="white" stroke-width="0.4" stroke-linejoin="round"/>
<path d="M15.7183 18.7451C15.7181 18.7446 15.7178 18.744 15.7174 18.7435L14.7094 16.9998C14.6103 16.8293 14.3917 16.7715 14.2212 16.8706C14.0507 16.9697 13.9929 17.1883 14.092 17.3588L15.1 19.1025C15.1987 19.2728 15.4167 19.331 15.5872 19.2327C15.7581 19.1342 15.8168 18.9159 15.7183 18.7451Z" fill="url(#paint18_linear_2253_591)" stroke="url(#paint19_linear_2253_591)" stroke-width="0.5" stroke-linejoin="round"/>
<path d="M15.6013 2.23802C15.4308 2.1389 15.2122 2.19674 15.1131 2.36722L14.1051 4.11096C14.0053 4.28104 14.0623 4.4998 14.2324 4.59956C14.2327 4.59976 14.233 4.59995 14.2333 4.60015C14.4037 4.69947 14.6223 4.64192 14.7216 4.47154C14.7219 4.471 14.7222 4.47046 14.7225 4.46996L15.7305 2.72623C15.8296 2.5557 15.7718 2.33714 15.6013 2.23802Z" fill="url(#paint20_linear_2253_591)" stroke="url(#paint21_linear_2253_591)" stroke-width="0.5" stroke-linejoin="round"/>
<path d="M7.14253 16.8706C6.97205 16.7715 6.75344 16.8293 6.65432 16.9998L5.64634 18.7435C5.54722 18.914 5.60507 19.1326 5.77555 19.2317C5.94602 19.3309 6.16463 19.273 6.26375 19.1025L7.27173 17.3588C7.37085 17.1883 7.313 16.9697 7.14253 16.8706Z" fill="url(#paint22_linear_2253_591)" stroke="url(#paint23_linear_2253_591)" stroke-width="0.5" stroke-linejoin="round"/>
<path d="M4.54606 14.2746C4.44694 14.1041 4.22834 14.0463 4.05786 14.1454L2.31412 15.1534C2.14364 15.2525 2.0858 15.4711 2.18492 15.6416C2.28404 15.8121 2.50265 15.8699 2.67312 15.7708L4.41686 14.7628C4.58734 14.6636 4.64519 14.4451 4.54606 14.2746Z" fill="url(#paint24_linear_2253_591)" stroke="url(#paint25_linear_2253_591)" stroke-width="0.5" stroke-linejoin="round"/>
<defs>
<linearGradient id="paint0_linear_2253_591" x1="21.6904" y1="6.37684" x2="18.278" y2="4.17521" gradientUnits="userSpaceOnUse">
<stop stop-color="#6703B7"/>
<stop offset="1" stop-color="#AA11AF"/>
</linearGradient>
<linearGradient id="paint1_linear_2253_591" x1="21.6904" y1="6.37684" x2="18.278" y2="4.17521" gradientUnits="userSpaceOnUse">
<stop stop-color="#6703B7"/>
<stop offset="1" stop-color="#AA11AF"/>
</linearGradient>
<linearGradient id="paint2_linear_2253_591" x1="21.6904" y1="14.8253" x2="18.278" y2="12.6237" gradientUnits="userSpaceOnUse">
<stop stop-color="#6703B7"/>
<stop offset="1" stop-color="#AA11AF"/>
</linearGradient>
<linearGradient id="paint3_linear_2253_591" x1="21.6904" y1="14.8253" x2="18.278" y2="12.6237" gradientUnits="userSpaceOnUse">
<stop stop-color="#6703B7"/>
<stop offset="1" stop-color="#AA11AF"/>
</linearGradient>
<linearGradient id="paint4_linear_2253_591" x1="11.7604" y1="18.9643" x2="10.3675" y2="18.802" gradientUnits="userSpaceOnUse">
<stop stop-color="#6703B7"/>
<stop offset="1" stop-color="#AA11AF"/>
</linearGradient>
<linearGradient id="paint5_linear_2253_591" x1="11.7604" y1="18.9643" x2="10.3675" y2="18.802" gradientUnits="userSpaceOnUse">
<stop stop-color="#6703B7"/>
<stop offset="1" stop-color="#AA11AF"/>
</linearGradient>
<linearGradient id="paint6_linear_2253_591" x1="7.05634" y1="6.37684" x2="3.64388" y2="4.17521" gradientUnits="userSpaceOnUse">
<stop stop-color="#6703B7"/>
<stop offset="1" stop-color="#AA11AF"/>
</linearGradient>
<linearGradient id="paint7_linear_2253_591" x1="7.05634" y1="6.37684" x2="3.64388" y2="4.17521" gradientUnits="userSpaceOnUse">
<stop stop-color="#6703B7"/>
<stop offset="1" stop-color="#AA11AF"/>
</linearGradient>
<linearGradient id="paint8_linear_2253_591" x1="11.7604" y1="2.05728" x2="10.3679" y2="1.89331" gradientUnits="userSpaceOnUse">
<stop stop-color="#6703B7"/>
<stop offset="1" stop-color="#AA11AF"/>
</linearGradient>
<linearGradient id="paint9_linear_2253_591" x1="11.7604" y1="2.05728" x2="10.3679" y2="1.89331" gradientUnits="userSpaceOnUse">
<stop stop-color="#6703B7"/>
<stop offset="1" stop-color="#AA11AF"/>
</linearGradient>
<linearGradient id="paint10_linear_2253_591" x1="9.04115" y1="3.22619" x2="5.96653" y2="2.25345" gradientUnits="userSpaceOnUse">
<stop stop-color="#6703B7"/>
<stop offset="1" stop-color="#AA11AF"/>
</linearGradient>
<linearGradient id="paint11_linear_2253_591" x1="9.04115" y1="3.22619" x2="5.96653" y2="2.25345" gradientUnits="userSpaceOnUse">
<stop stop-color="#6703B7"/>
<stop offset="1" stop-color="#AA11AF"/>
</linearGradient>
<linearGradient id="paint12_linear_2253_591" x1="23.2043" y1="10.6773" x2="21.8473" y2="8.34326" gradientUnits="userSpaceOnUse">
<stop stop-color="#6703B7"/>
<stop offset="1" stop-color="#AA11AF"/>
</linearGradient>
<linearGradient id="paint13_linear_2253_591" x1="23.2043" y1="10.6773" x2="21.8473" y2="8.34326" gradientUnits="userSpaceOnUse">
<stop stop-color="#6703B7"/>
<stop offset="1" stop-color="#AA11AF"/>
</linearGradient>
<linearGradient id="paint14_linear_2253_591" x1="6.36305" y1="10.6794" x2="5.00602" y2="8.34533" gradientUnits="userSpaceOnUse">
<stop stop-color="#6703B7"/>
<stop offset="1" stop-color="#AA11AF"/>
</linearGradient>
<linearGradient id="paint15_linear_2253_591" x1="6.36305" y1="10.6794" x2="5.00602" y2="8.34533" gradientUnits="userSpaceOnUse">
<stop stop-color="#6703B7"/>
<stop offset="1" stop-color="#AA11AF"/>
</linearGradient>
<linearGradient id="paint16_linear_2253_591" x1="26.5056" y1="9.90985" x2="9.30284" y2="2.13327" gradientUnits="userSpaceOnUse">
<stop stop-color="#6703B7"/>
<stop offset="1" stop-color="#AA11AF"/>
</linearGradient>
<linearGradient id="paint17_linear_2253_591" x1="26.5056" y1="9.90985" x2="9.30284" y2="2.13327" gradientUnits="userSpaceOnUse">
<stop stop-color="#6703B7"/>
<stop offset="1" stop-color="#AA11AF"/>
</linearGradient>
<linearGradient id="paint18_linear_2253_591" x1="17.4913" y1="17.8589" x2="14.4133" y2="16.884" gradientUnits="userSpaceOnUse">
<stop stop-color="#6703B7"/>
<stop offset="1" stop-color="#AA11AF"/>
</linearGradient>
<linearGradient id="paint19_linear_2253_591" x1="17.4913" y1="17.8589" x2="14.4133" y2="16.884" gradientUnits="userSpaceOnUse">
<stop stop-color="#6703B7"/>
<stop offset="1" stop-color="#AA11AF"/>
</linearGradient>
<linearGradient id="paint20_linear_2253_591" x1="17.5046" y1="3.2267" x2="14.4258" y2="2.25157" gradientUnits="userSpaceOnUse">
<stop stop-color="#6703B7"/>
<stop offset="1" stop-color="#AA11AF"/>
</linearGradient>
<linearGradient id="paint21_linear_2253_591" x1="17.5046" y1="3.2267" x2="14.4258" y2="2.25157" gradientUnits="userSpaceOnUse">
<stop stop-color="#6703B7"/>
<stop offset="1" stop-color="#AA11AF"/>
</linearGradient>
<linearGradient id="paint22_linear_2253_591" x1="9.04511" y1="17.8588" x2="5.96759" y2="16.884" gradientUnits="userSpaceOnUse">
<stop stop-color="#6703B7"/>
<stop offset="1" stop-color="#AA11AF"/>
</linearGradient>
<linearGradient id="paint23_linear_2253_591" x1="9.04511" y1="17.8588" x2="5.96759" y2="16.884" gradientUnits="userSpaceOnUse">
<stop stop-color="#6703B7"/>
<stop offset="1" stop-color="#AA11AF"/>
</linearGradient>
<linearGradient id="paint24_linear_2253_591" x1="7.05634" y1="14.8233" x2="3.64388" y2="12.6217" gradientUnits="userSpaceOnUse">
<stop stop-color="#6703B7"/>
<stop offset="1" stop-color="#AA11AF"/>
</linearGradient>
<linearGradient id="paint25_linear_2253_591" x1="7.05634" y1="14.8233" x2="3.64388" y2="12.6217" gradientUnits="userSpaceOnUse">
<stop stop-color="#6703B7"/>
<stop offset="1" stop-color="#AA11AF"/>
</linearGradient>
</defs>
</svg>
